<svg width="48" height="49" viewBox="0 0 48 49" fill="none" xmlns="http://www.w3.org/2000/svg">
<path d="M48 24.4996C48 37.7545 37.2548 48.4996 24 48.4996C10.7452 48.4996 0 37.7545 0 24.4996C0 12.1645 9.30581 2.00282 21.28 0.652072C22.1728 0.551385 27.5499 0.697353 29.235 1.07226C39.9723 3.46101 48 13.0428 48 24.4996Z" fill="#644189"/>
<path d="M45.1875 24.5C45.1875 36.2015 35.7015 45.6875 24 45.6875C12.2985 45.6875 2.8125 36.2015 2.8125 24.5C2.8125 12.7985 12.2985 3.3125 24 3.3125C35.7015 3.3125 45.1875 12.7985 45.1875 24.5Z" fill="#754CA0"/>
<path d="M36.75 38.4688C36.75 39.7632 31.0417 40.8125 24 40.8125C16.9583 40.8125 11.25 39.7632 11.25 38.4688C11.25 37.1743 16.9583 36.125 24 36.125C31.0417 36.125 36.75 37.1743 36.75 38.4688Z" fill="#533672"/>
<path d="M10.3125 31.4375C10.3125 31.8258 9.99769 32.1406 9.60938 32.1406H9.14062V32.6094C9.14062 32.9977 8.82581 33.3125 8.4375 33.3125C8.04919 33.3125 7.73438 32.9977 7.73438 32.6094V32.1406H7.26562C6.87731 32.1406 6.5625 31.8258 6.5625 31.4375C6.5625 31.0492 6.87731 30.7344 7.26562 30.7344H7.73438V30.2656C7.73438 29.8773 8.04919 29.5625 8.4375 29.5625C8.82581 29.5625 9.14062 29.8773 9.14062 30.2656V30.7344H9.60938C9.99769 30.7344 10.3125 31.0492 10.3125 31.4375Z" fill="#FFC14F"/>
<path d="M17.3569 32.0328C14.236 29.5622 11.67 26.3624 9.93649 22.7791C8.20306 19.1958 7.28674 15.1979 7.28674 11.2174V5.05195C12.3436 2.6332 17.7728 1.40723 23.4329 1.40723C29.0931 1.40723 34.5222 2.6332 39.579 5.05195V11.2174C39.579 15.1979 38.6627 19.1958 36.9293 22.7791C35.1958 26.3624 32.6299 29.5622 29.509 32.0328L23.4329 36.8428L17.3569 32.0328Z" fill="#FFF04A"/>
<path d="M10.3578 23.6111L31.6622 2.30664C34.3704 2.91245 37.0029 3.82295 39.5416 5.03383L14.8277 29.7478C13.0569 27.928 11.543 25.8527 10.3578 23.6111Z" fill="#FFF79F"/>
<path d="M15.58 19.8088C14.1593 16.8721 13.4083 13.5957 13.4083 10.3337V8.94533C16.628 7.95495 19.9834 7.45508 23.433 7.45508C26.8826 7.45508 30.238 7.95495 33.4576 8.94533V10.3337C33.4576 13.5957 32.7067 16.8722 31.286 19.8088C30.7717 20.872 30.1678 21.894 29.4854 22.8614C29.2715 23.1647 28.9218 23.3434 28.5506 23.3434H18.3153C17.9441 23.3434 17.5944 23.1647 17.3805 22.8614C16.698 21.8939 16.0943 20.872 15.58 19.8088Z" fill="#DEF4F8"/>
<path d="M23.4331 2.31453C28.7647 2.31453 33.8854 3.42884 38.672 5.62869V11.2175C38.672 15.062 37.787 18.9233 36.1128 22.3841C34.4385 25.8448 31.9604 28.9353 28.946 31.3215L23.4331 35.6857L17.9203 31.3214C14.906 28.9352 12.4277 25.8447 10.7535 22.384C9.07917 18.9232 8.19426 15.0619 8.19426 11.2174V5.62869C12.9809 3.42884 18.1016 2.31453 23.4331 2.31453ZM23.4331 0.5C17.5199 0.5 11.919 1.8365 6.9158 4.22403C6.5887 4.38013 6.37964 4.70947 6.37964 5.07191V11.2175C6.37964 19.6074 10.2157 27.5367 16.794 32.7443L22.8512 37.5394C23.1922 37.8093 23.6741 37.8093 24.015 37.5394L30.0723 32.7443C36.6505 27.5368 40.4866 19.6075 40.4866 11.2175V5.07181C40.4866 4.70937 40.2776 4.38003 39.9505 4.22394C34.9471 1.8365 29.3462 0.5 23.4331 0.5V0.5Z" fill="#FFC14F"/>
<path d="M17.276 16.6074H29.5902V22.7127C28.3675 24.477 26.8843 26.0639 25.2051 27.3932L24.7868 27.7243H22.0796L21.6613 27.3931C19.982 26.0637 18.4989 24.4768 17.2761 22.7126V16.6074H17.276Z" fill="#FFC14F"/>
<path d="M25.7006 24.3031H21.1652C20.9063 24.3031 20.6964 24.0932 20.6964 23.8343V20.4961C20.6964 20.2373 20.9063 20.0273 21.1652 20.0273H25.7006C25.9594 20.0273 26.1693 20.2373 26.1693 20.4961V23.8343C26.1693 24.0933 25.9594 24.3031 25.7006 24.3031Z" fill="#754CA0"/>
<path d="M25.69 26.9971C25.5303 27.1314 25.3685 27.2633 25.2049 27.3928L23.4331 28.7955L21.6611 27.3928C21.4975 27.2633 21.3359 27.1314 21.176 26.9971H25.69Z" fill="#9BCF1B"/>
<path d="M26.3191 16.2599V9.94824C26.3191 9.55993 26.6339 9.24512 27.0222 9.24512H28.1813C28.5697 9.24512 28.8845 9.55993 28.8845 9.94824V16.2599C28.8845 16.6482 28.5697 16.963 28.1813 16.963H27.0221C26.6338 16.963 26.3191 16.6482 26.3191 16.2599Z" fill="#A6E0EC"/>
<path d="M14.4712 17.3971L23.1002 10.0492C23.2919 9.88595 23.5738 9.88595 23.7655 10.0492L32.3945 17.3971C32.7577 17.7065 32.539 18.3009 32.0618 18.3009H14.804C14.3268 18.3009 14.108 17.7065 14.4712 17.3971Z" fill="#E5554E"/>
<path d="M44.9999 23.9375C44.9999 24.3258 44.685 24.6406 44.2967 24.6406H43.828V25.1094C43.828 25.4977 43.5132 25.8125 43.1249 25.8125C42.7365 25.8125 42.4217 25.4977 42.4217 25.1094V24.6406H41.953C41.5647 24.6406 41.2499 24.3258 41.2499 23.9375C41.2499 23.5492 41.5647 23.2344 41.953 23.2344H42.4217V22.7656C42.4217 22.3773 42.7365 22.0625 43.1249 22.0625C43.5132 22.0625 43.828 22.3773 43.828 22.7656V23.2344H44.2967C44.685 23.2344 44.9999 23.5492 44.9999 23.9375ZM16.5422 3.54688H16.0735V3.07812C16.0735 2.68981 15.7587 2.375 15.3704 2.375C14.982 2.375 14.6672 2.68981 14.6672 3.07812V3.54688H14.1985C13.8102 3.54688 13.4954 3.86169 13.4954 4.25C13.4954 4.63831 13.8102 4.95312 14.1985 4.95312H14.6672V5.42188C14.6672 5.81019 14.982 6.125 15.3704 6.125C15.7587 6.125 16.0735 5.81019 16.0735 5.42188V4.95312H16.5422C16.9305 4.95312 17.2454 4.63831 17.2454 4.25C17.2454 3.86169 16.9305 3.54688 16.5422 3.54688Z" fill="#FFFAC1"/>
<path d="M41.25 33.3125C41.25 37.4547 37.8922 40.8125 33.75 40.8125C29.6078 40.8125 26.25 37.4547 26.25 33.3125C26.25 29.1703 29.6078 25.8125 33.75 25.8125C37.8922 25.8125 41.25 29.1703 41.25 33.3125Z" fill="#84B017"/>
<path d="M41.25 33.3125C41.25 34.7835 40.8265 36.1556 40.0948 37.3136C38.9368 38.0453 37.5648 38.4688 36.0938 38.4688C31.9516 38.4688 28.5938 35.1109 28.5938 30.9688C28.5938 29.4977 29.0172 28.1257 29.7489 26.9677C30.9069 26.236 32.279 25.8125 33.75 25.8125C37.8922 25.8125 41.25 29.1703 41.25 33.3125Z" fill="#9BCF1B"/>
<path d="M39.8536 29.1954L33.5247 35.5244C33.3928 35.6562 33.214 35.7303 33.0274 35.7303C32.8409 35.7303 32.6622 35.6562 32.5302 35.5244L30.0326 33.0268C29.758 32.7521 29.758 32.307 30.0326 32.0324C30.3073 31.7579 30.7524 31.7579 31.027 32.0324L33.0274 34.0328L38.859 28.201C39.1337 27.9265 39.5788 27.9265 39.8534 28.201C40.1281 28.4756 40.1281 28.9207 39.8536 29.1954Z" fill="white"/>
</svg>
