<svg width="19" height="25" viewBox="0 0 19 25" fill="none" xmlns="http://www.w3.org/2000/svg">
<path fill-rule="evenodd" clip-rule="evenodd" d="M2.375 25H16.625C17.9339 25 19 23.9238 19 22.6V11.4C19 10.0762 17.9339 9 16.625 9H2.375C1.06612 9 0 10.0762 0 11.4V22.6C0 23.9238 1.06612 25 2.375 25ZM1.58333 11.4C1.58333 10.9584 1.93896 10.6 2.375 10.6H16.625C17.061 10.6 17.4167 10.9584 17.4167 11.4V22.6C17.4167 23.0416 17.061 23.4 16.625 23.4H2.375C1.93896 23.4 1.58333 23.0416 1.58333 22.6V11.4Z" fill="#933C85"/>
<path d="M15.1875 10C14.739 10 14.375 9.68 14.375 9.28571V5.71429C14.375 3.35135 12.1878 1.42857 9.5 1.42857C6.81216 1.42857 4.625 3.35135 4.625 5.71429V9.28571C4.625 9.68 4.261 10 3.8125 10C3.364 10 3 9.68 3 9.28571V5.71429C3 2.56278 5.91516 0 9.5 0C13.0848 0 16 2.56278 16 5.71429V9.28571C16 9.68 15.636 10 15.1875 10Z" fill="#933C85"/>
<path d="M10 15V19" stroke="#933C85" stroke-width="1.3" stroke-linecap="round"/>
</svg>
