<svg width="48" height="49" viewBox="0 0 48 49" fill="none" xmlns="http://www.w3.org/2000/svg">
<g clip-path="url(#clip0)">
<path d="M7.2196 7.34375C11.547 3.11056 17.4682 0.5 24 0.5C30.5319 0.5 36.453 3.11056 40.7804 7.34375H19.1067H8.77164H7.2196Z" fill="#3C5064"/>
<path d="M0 10.8125V7.0625C0 6.54472 0.419719 6.125 0.9375 6.125H8.56275H16.875H39.4372C41.0608 7.49038 42.5004 9.06725 43.7147 10.8125H14.2201H2.59772H0Z" fill="#6CD0F5"/>
<path d="M0 11.75V9.875H4.5V8.46875C4.5 8.20991 4.70991 8 4.96875 8H12.6562C12.9151 8 13.125 8.20991 13.125 8.46875V9.875H20.7273H43.0285C43.4926 10.4778 43.9279 11.1038 44.334 11.75H0Z" fill="#46A5CD"/>
<path d="M0 13.625V10.8125H43.7135C44.319 11.6829 44.868 12.5954 45.356 13.5446C45.5948 14.0093 45.261 14.5625 44.7383 14.5625H0.9375C0.419719 14.5625 0 14.1428 0 13.625Z" fill="#46738C"/>
<path d="M12.0938 9.125V9.6875C12.0938 9.791 12.0098 9.875 11.9062 9.875H5.71875C5.61516 9.875 5.53125 9.791 5.53125 9.6875V9.125C5.53125 9.0215 5.61516 8.9375 5.71875 8.9375H11.9062C12.0098 8.9375 12.0938 9.0215 12.0938 9.125ZM42 11.75H38.625C38.5214 11.75 38.4375 11.834 38.4375 11.9375V12.5C38.4375 12.6035 38.5214 12.6875 38.625 12.6875H42C42.1036 12.6875 42.1875 12.6035 42.1875 12.5V11.9375C42.1875 11.834 42.1036 11.75 42 11.75Z" fill="#3C5064"/>
<path d="M2.8125 12.5V11.9375C2.8125 11.834 2.89641 11.75 3 11.75H36.375C36.4786 11.75 36.5625 11.834 36.5625 11.9375V12.5C36.5625 12.6035 36.4786 12.6875 36.375 12.6875H3C2.89641 12.6875 2.8125 12.6035 2.8125 12.5ZM45.3973 13.625H0V23.9375H0.0069375C0.002625 24.1245 0 24.3119 0 24.5C0 37.7548 10.7452 48.5 24 48.5C37.2548 48.5 48 37.7548 48 24.5C48 20.5847 47.0607 16.8897 45.3973 13.625Z" fill="#E6FAFF"/>
<path d="M26.3438 48.3859C25.5725 48.4606 24.7909 48.5 24 48.5C10.7452 48.5 0 37.7548 0 24.5C0 24.3119 0.002625 24.1245 0.0069375 23.9375H0V13.625H4.6875V23.9375H4.69444C4.69012 24.1245 4.6875 24.3119 4.6875 24.5C4.6875 36.964 14.189 47.2077 26.3438 48.3859Z" fill="#CDF5FF"/>
<path d="M46.9245 17.375C47.6234 19.6261 48 22.0191 48 24.5C48 32.3622 44.2193 39.3412 38.3769 43.7188H9.62306C7.30481 41.9818 5.31159 39.835 3.75 37.3861V18.3125C3.75 17.7947 4.16972 17.375 4.6875 17.375H46.9245Z" fill="#FF4682"/>
<path d="M34.7812 30.5469C34.7812 35.4657 30.7938 39.4531 25.875 39.4531C20.9562 39.4531 16.9688 35.4657 16.9688 30.5469C16.9688 25.6281 20.9562 21.6406 25.875 21.6406C30.7938 21.6406 34.7812 25.6281 34.7812 30.5469Z" fill="#FF73A0"/>
<path d="M23.4375 34.8035V26.2899C23.4375 25.8985 23.8889 25.6795 24.1963 25.9217L29.5992 30.1786C29.8375 30.3662 29.8375 30.7273 29.5992 30.915L24.1963 35.1718C23.8889 35.4139 23.4375 35.1949 23.4375 34.8035Z" fill="#F5F0EB"/>
<path d="M4.6875 17.375V23.9375H4.69444C4.69013 24.1245 4.6875 24.3119 4.6875 24.5C4.6875 32.3632 8.47003 39.3417 14.3137 43.7188H9.62306C7.30481 41.9818 5.31159 39.835 3.75 37.3861V18.3125C3.75 17.7947 4.16972 17.375 4.6875 17.375Z" fill="#D72D73"/>
</g>
<defs>
<clipPath id="clip0">
<rect width="48" height="48" fill="white" transform="translate(0 0.5)"/>
</clipPath>
</defs>
</svg>
