<svg width="25" height="25" viewBox="0 0 25 25" fill="none" xmlns="http://www.w3.org/2000/svg">
<path fill-rule="evenodd" clip-rule="evenodd" d="M24.3275 10.8727C24.3278 10.8731 24.3282 10.8735 24.3286 10.8738C25.2242 11.7712 25.2238 13.2305 24.3273 14.1273C23.8922 14.5624 23.3142 14.8018 22.6996 14.8018H22.3226V22.3064C22.3226 23.7917 21.1142 25 19.6286 25H15.6384C15.2338 25 14.9059 24.6719 14.9059 24.2676V18.3838C14.9059 17.7061 14.3547 17.1549 13.6769 17.1549H11.3234C10.6456 17.1549 10.0942 17.7061 10.0942 18.3838V24.2676C10.0942 24.6719 9.76626 25 9.36167 25H5.37147C3.88607 25 2.67745 23.7917 2.67745 22.3064V14.8018H2.27114C2.2473 14.8018 2.22365 14.8006 2.19999 14.7984C1.6222 14.7734 1.08198 14.5365 0.672816 14.1272C-0.222775 13.2317 -0.224301 11.775 0.668428 10.8772L0.678729 10.8667L10.8724 0.674248C11.3074 0.239372 11.8853 0 12.5001 0C13.1149 0 13.6929 0.239372 14.1277 0.674248L24.3267 10.8719C24.327 10.8721 24.3272 10.8724 24.3275 10.8727ZM22.6996 13.3369C22.923 13.3369 23.1332 13.2498 23.2913 13.0917C23.6167 12.7661 23.6173 12.2364 23.2928 11.9097L23.2881 11.9051L13.0917 1.70994C12.9335 1.55182 12.7235 1.46484 12.5001 1.46484C12.2766 1.46484 12.0666 1.55182 11.9086 1.70994L1.70995 11.9072L1.70937 11.9078C1.7093 11.9078 1.70926 11.9079 1.70922 11.908C1.70915 11.9081 1.70911 11.9081 1.70899 11.9081C1.3828 12.2345 1.3828 12.7653 1.70899 13.0915C1.86236 13.245 2.06704 13.3316 2.28526 13.3354C2.2969 13.3356 2.30815 13.3362 2.3196 13.3369H3.40995C3.81454 13.3369 4.14244 13.6648 4.14244 14.0694V22.3064C4.14244 22.9839 4.69391 23.5352 5.37147 23.5352H8.62917V18.3838C8.62917 16.8985 9.83779 15.69 11.3234 15.69H13.6769C15.1625 15.69 16.3709 16.8985 16.3709 18.3838V23.5352H19.6286C20.3064 23.5352 20.8577 22.9839 20.8577 22.3064V14.0694C20.8577 13.6648 21.1856 13.3369 21.5902 13.3369H22.6996Z" fill="#933C85"/>
</svg>
