<svg width="46" height="49" viewBox="0 0 46 49" fill="none" xmlns="http://www.w3.org/2000/svg">
<g clip-path="url(#clip0)">
<path d="M23 48.5C35.7025 48.5 46 37.7548 46 24.5C46 11.2452 35.7025 0.5 23 0.5C10.2975 0.5 0 11.2452 0 24.5C0 37.7548 10.2975 48.5 23 48.5Z" fill="#15BE79"/>
<path d="M42.5571 37.1331C36.1521 47.9472 22.672 51.7225 11.8889 45.5134C1.25773 39.3906 -2.90743 25.7734 2.11394 14.4474C4.22257 13.8296 6.09851 12.1609 8.31316 12.0193C10.6931 11.8656 13.03 13.8006 13.4244 16.2578C13.6939 17.9237 13.1593 19.6609 13.5223 21.3081C13.9239 23.1324 15.5096 24.6034 17.2957 24.8059C18.0028 24.8865 18.7404 24.789 19.4116 25.0365C20.4268 25.4115 21.0629 26.4812 22.0296 26.9753C23.2057 27.5771 24.6216 27.2106 25.8255 26.6678C27.0294 26.1249 28.2055 25.4068 29.5091 25.3112C31.7696 25.1471 33.8153 26.9621 34.7425 29.1184C35.4289 30.7121 35.6867 32.5684 36.8376 33.835C38.3434 35.4943 40.957 35.6565 42.5571 37.1331Z" fill="#14A36D"/>
<path d="M37.267 20.9314V35.5855C37.2668 36.2641 37.0083 36.9149 36.5483 37.3947C36.0884 37.8744 35.4647 38.1439 34.8143 38.1439H11.1854C10.8633 38.1441 10.5444 38.078 10.2468 37.9495C9.94927 37.8209 9.67888 37.6325 9.45111 37.3949C9.22334 37.1573 9.04266 36.8753 8.91939 36.5648C8.79611 36.2543 8.73267 35.9216 8.73267 35.5855V20.9314C8.73255 20.5954 8.79588 20.2626 8.91904 19.9521C9.04221 19.6416 9.22279 19.3594 9.45047 19.1218C9.67816 18.8841 9.94849 18.6955 10.246 18.5669C10.5435 18.4383 10.8624 18.3721 11.1845 18.3721H34.8134C35.1356 18.3719 35.4546 18.4381 35.7523 18.5666C36.05 18.6952 36.3205 18.8837 36.5483 19.1214C36.7762 19.359 36.9569 19.6412 37.0802 19.9518C37.2036 20.2624 37.267 20.5953 37.267 20.9314Z" fill="#EFB732"/>
<path d="M34.8144 18.3721H13.7649C12.4103 18.3721 11.3121 19.5179 11.3121 20.9314V34.2289C11.3121 35.6424 12.4103 36.7883 13.7649 36.7883H34.8144C36.169 36.7883 37.2671 35.6424 37.2671 34.2289V20.9314C37.2671 19.5179 36.169 18.3721 34.8144 18.3721Z" fill="#FBDB58"/>
<path d="M25.8517 22.2071C28.025 22.2071 29.7868 21.536 29.7868 20.708C29.7868 19.8801 28.025 19.209 25.8517 19.209C23.6783 19.209 21.9165 19.8801 21.9165 20.708C21.9165 21.536 23.6783 22.2071 25.8517 22.2071Z" fill="#F9EAA5"/>
<path d="M33.2699 21.6969C34.7039 21.6969 35.8664 21.2541 35.8664 20.7078C35.8664 20.1616 34.7039 19.7188 33.2699 19.7188C31.8359 19.7188 30.6735 20.1616 30.6735 20.7078C30.6735 21.2541 31.8359 21.6969 33.2699 21.6969Z" fill="#F9EAA5"/>
<path d="M8.73267 30.2568H37.267V34.2281H8.73267V30.2568Z" fill="#F4E6F4"/>
<path d="M11.3121 30.2568H37.2671V34.2281H11.3121V30.2568Z" fill="white"/>
<path d="M34.1999 24.2568H22.231C22.0573 24.2568 21.9165 24.4037 21.9165 24.585C21.9165 24.7662 22.0573 24.9131 22.231 24.9131H34.1999C34.3736 24.9131 34.5144 24.7662 34.5144 24.585C34.5144 24.4037 34.3736 24.2568 34.1999 24.2568Z" fill="#334353"/>
<path d="M34.1999 25.9082H22.231C22.0573 25.9082 21.9165 26.0551 21.9165 26.2363C21.9165 26.4175 22.0573 26.5645 22.231 26.5645H34.1999C34.3736 26.5645 34.5144 26.4175 34.5144 26.2363C34.5144 26.0551 34.3736 25.9082 34.1999 25.9082Z" fill="#334353"/>
<path d="M34.1999 27.5605H22.231C22.0573 27.5605 21.9165 27.7075 21.9165 27.8887C21.9165 28.0699 22.0573 28.2168 22.231 28.2168H34.1999C34.3736 28.2168 34.5144 28.0699 34.5144 27.8887C34.5144 27.7075 34.3736 27.5605 34.1999 27.5605Z" fill="#334353"/>
<path d="M17.2569 26.9763C16.9353 27.3082 16.5028 27.5163 15.9596 27.6007V28.1716C15.9623 28.234 15.9528 28.2963 15.9318 28.3548C15.9108 28.4132 15.8786 28.4666 15.8373 28.5118C15.7959 28.5569 15.7462 28.5928 15.6912 28.6174C15.6362 28.6419 15.5769 28.6546 15.5171 28.6546C15.4573 28.6546 15.398 28.6419 15.343 28.6174C15.288 28.5928 15.2383 28.5569 15.1969 28.5118C15.1556 28.4666 15.1234 28.4132 15.1024 28.3548C15.0814 28.2963 15.0719 28.234 15.0746 28.1716V27.6185C14.4601 27.5632 13.7755 27.3428 13.3047 26.9491C13.0594 26.7888 13.0478 26.4128 13.2149 26.1888C13.382 25.9647 13.6057 26.0472 13.8177 26.1794C14.0608 26.349 14.325 26.4831 14.6029 26.5778C15.1016 26.7513 15.921 26.7747 16.31 26.4691C16.4134 26.393 16.4967 26.2909 16.5522 26.1723C16.6076 26.0536 16.6334 25.9222 16.6271 25.7903C16.6271 25.4153 16.3333 25.2278 16.0198 25.1069C15.2112 24.8013 14.0872 24.7225 13.5293 23.9978C13.3329 23.756 13.2346 23.43 13.2346 23.02C13.2292 21.97 14.0702 21.2688 15.0567 21.1272V20.5572C15.054 20.4948 15.0634 20.4325 15.0844 20.3741C15.1055 20.3156 15.1376 20.2622 15.179 20.217C15.2203 20.1719 15.27 20.136 15.325 20.1114C15.3801 20.0869 15.4393 20.0742 15.4991 20.0742C15.559 20.0742 15.6182 20.0869 15.6732 20.1114C15.7283 20.136 15.778 20.1719 15.8193 20.217C15.8607 20.2622 15.8928 20.3156 15.9138 20.3741C15.9349 20.4325 15.9443 20.4948 15.9416 20.5572V21.1197C16.4947 21.1828 17.0187 21.4106 17.451 21.776C17.5064 21.8183 17.553 21.8718 17.5881 21.9333C17.6233 21.9948 17.6462 22.0631 17.6555 22.134C17.6648 22.205 17.6603 22.2772 17.6423 22.3463C17.6243 22.4154 17.5932 22.48 17.5507 22.5363C17.38 22.7632 17.1554 22.691 16.9479 22.5447C16.7391 22.387 16.5136 22.2549 16.2758 22.151C15.6074 21.8744 14.3334 21.9775 14.3451 22.9525C14.3604 23.68 15.1429 23.7625 15.7422 23.9482C16.478 24.1638 16.9892 24.2453 17.4555 24.8041C17.9092 25.3722 17.8023 26.4691 17.2569 26.9763Z" fill="#334353"/>
<path d="M36.0129 16.8556C35.6266 17.7377 34.8449 18.3715 33.5871 18.3715H25.255C25.255 14.8699 27.8209 12.7465 30.5917 11.913C31.4565 11.6523 32.3518 11.5179 33.252 11.5137C35.6975 11.5137 36.9005 14.8352 36.0129 16.8556Z" fill="#FA4654"/>
<path d="M26.7061 18.3714C26.7061 15.3854 28.8372 13.9482 31.6475 13.9482C34.4578 13.9482 35.2116 18.3714 31.917 18.3714H26.7061Z" fill="#E52E44"/>
<path d="M25.2551 16.6309V18.3709H20.479V16.6309C20.479 16.1833 20.6494 15.7541 20.9527 15.4376C21.2559 15.1211 21.6673 14.9434 22.0962 14.9434H23.6352C23.9895 14.943 24.3341 15.0641 24.6161 15.288C24.898 15.512 25.1017 15.8263 25.1958 16.1827C25.2351 16.3286 25.2551 16.4794 25.2551 16.6309Z" fill="#E52E44"/>
<path d="M25.1966 16.1818C25.1028 16.5386 24.8993 16.8533 24.6173 17.0776C24.3353 17.3019 23.9905 17.4232 23.636 17.423H22.1014C21.747 17.423 21.4025 17.3016 21.1207 17.0773C20.8389 16.853 20.6355 16.5384 20.5417 16.1818C20.6358 15.8255 20.8393 15.5112 21.1211 15.2873C21.4029 15.0634 21.7473 14.9423 22.1014 14.9424H23.6405C23.994 14.9431 24.3376 15.0646 24.6186 15.2885C24.8997 15.5123 25.1027 15.8261 25.1966 16.1818Z" fill="#FA4654"/>
<path d="M9.72128 16.8556C10.1076 17.7377 10.8893 18.3715 12.1471 18.3715H20.4774C20.4774 14.8699 17.9114 12.7465 15.1407 11.913C14.2758 11.6523 13.3806 11.5179 12.4804 11.5137C10.0357 11.5137 8.83363 14.8352 9.72128 16.8556Z" fill="#FA4654"/>
<path d="M19.0281 18.3714C19.0281 15.3854 16.897 13.9482 14.0866 13.9482C11.2763 13.9482 10.5225 18.3714 13.8171 18.3714H19.0281Z" fill="#E52E44"/>
<path d="M35.297 14.3908C35.6299 14.0434 35.4285 13.2701 34.8472 12.6635C34.2659 12.0569 33.5248 11.8468 33.1919 12.1942C32.859 12.5416 33.0603 13.315 33.6416 13.9215C34.2229 14.5281 34.964 14.7382 35.297 14.3908Z" fill="#FB626E"/>
<path d="M23.4116 16.5832C24.1038 16.5832 24.665 16.2902 24.665 15.9288C24.665 15.5674 24.1038 15.2744 23.4116 15.2744C22.7195 15.2744 22.1583 15.5674 22.1583 15.9288C22.1583 16.2902 22.7195 16.5832 23.4116 16.5832Z" fill="#FB626E"/>
<path d="M35.4174 16.9129C35.6705 16.9129 35.8756 16.4399 35.8756 15.8564C35.8756 15.2728 35.6705 14.7998 35.4174 14.7998C35.1644 14.7998 34.9592 15.2728 34.9592 15.8564C34.9592 16.4399 35.1644 16.9129 35.4174 16.9129Z" fill="#FB626E"/>
<path d="M12.0853 13.9185C12.6666 13.312 12.8679 12.5386 12.535 12.1912C12.2021 11.8438 11.461 12.0539 10.8797 12.6605C10.2984 13.2671 10.097 14.0404 10.4299 14.3878C10.7629 14.7352 11.504 14.5251 12.0853 13.9185Z" fill="#FB626E"/>
<path d="M10.3157 16.9129C10.5688 16.9129 10.7739 16.4399 10.7739 15.8564C10.7739 15.2728 10.5688 14.7998 10.3157 14.7998C10.0627 14.7998 9.85754 15.2728 9.85754 15.8564C9.85754 16.4399 10.0627 16.9129 10.3157 16.9129Z" fill="#FB626E"/>
<path d="M37.9714 27.6613V30.9425C37.9715 31.0569 37.939 31.1688 37.8782 31.264C37.8173 31.3591 37.7308 31.4333 37.6295 31.4772C37.5283 31.5211 37.4168 31.5326 37.3093 31.5103C37.2017 31.4881 37.1029 31.4331 37.0253 31.3522L24.8246 18.621C24.7472 18.5401 24.6944 18.4371 24.6731 18.3249C24.6518 18.2128 24.6627 18.0966 24.7046 17.9909C24.7466 17.8853 24.8175 17.795 24.9086 17.7314C24.9997 17.6679 25.1067 17.6339 25.2163 17.6338H28.3608C28.4337 17.6338 28.5059 17.6488 28.5733 17.6779C28.6407 17.707 28.7019 17.7497 28.7534 17.8035L37.8088 27.2516C37.8603 27.3054 37.9012 27.3693 37.9291 27.4396C37.957 27.5099 37.9714 27.5852 37.9714 27.6613Z" fill="#E52E44"/>
<path d="M37.9714 27.6614V30.8751L25.281 17.6357H28.3626C28.4356 17.6357 28.5078 17.6507 28.5751 17.6798C28.6425 17.709 28.7037 17.7516 28.7553 17.8054L37.8088 27.2517C37.8604 27.3055 37.9013 27.3694 37.9292 27.4396C37.9571 27.5099 37.9714 27.5853 37.9714 27.6614Z" fill="#FA4654"/>
<path d="M32.385 23.0121C32.7109 22.672 32.166 21.5521 31.168 20.5106C30.1699 19.4692 29.0967 18.9006 28.7708 19.2407C28.4449 19.5808 28.9897 20.7007 29.9878 21.7421C30.9858 22.7836 32.0591 23.3522 32.385 23.0121Z" fill="#FB626E"/>
<path d="M35.0199 25.7608C35.2248 25.5471 34.8821 24.8429 34.2545 24.188C33.6269 23.5331 32.952 23.1755 32.7472 23.3893C32.5423 23.6031 32.885 24.3073 33.5126 24.9621C34.1402 25.617 34.815 25.9746 35.0199 25.7608Z" fill="#FB626E"/>
</g>
<defs>
<clipPath id="clip0">
<rect width="46" height="48" fill="white" transform="translate(0 0.5)"/>
</clipPath>
</defs>
</svg>
