<svg width="26" height="23" viewBox="0 0 26 23" fill="none" xmlns="http://www.w3.org/2000/svg">
<path fill-rule="evenodd" clip-rule="evenodd" d="M23.5524 5.52428C23.5524 7.46178 22.5257 9.16897 20.9758 10.1555C23.9213 11.342 26 14.176 26 17.4757V20.2644C26 21.7728 24.7434 23 23.1985 23H2.8015C1.25684 23 0 21.7728 0 20.2642V17.4757C0 14.176 2.07866 11.342 5.02417 10.1555C3.47435 9.16897 2.44762 7.46178 2.44762 5.52428C2.44762 2.47816 4.98549 0 8.10477 0C10.1927 0 12.0199 1.11055 13 2.75846C13.9801 1.11055 15.8074 0 17.8954 0C21.0147 0 23.5524 2.47816 23.5524 5.52428ZM22.0289 5.52428C22.0289 3.29853 20.1746 1.48771 17.8954 1.48771C15.616 1.48771 13.7617 3.29853 13.7617 5.52428C13.7617 7.75022 15.616 9.56104 17.8954 9.56104C20.1746 9.56104 22.0289 7.75022 22.0289 5.52428ZM12.9972 11.1702C12.4442 10.7599 11.836 10.4176 11.1854 10.1555C11.9294 9.68192 12.5529 9.04209 13 8.29048C13.4469 9.0417 14.07 9.68114 14.8134 10.1548C14.169 10.4136 13.5584 10.7541 12.9972 11.1702ZM8.10477 1.48771C5.82536 1.48771 3.97105 3.29853 3.97105 5.52428C3.97105 7.75022 5.82536 9.56104 8.10477 9.56104C10.384 9.56104 12.2383 7.75022 12.2383 5.52428C12.2383 3.29853 10.384 1.48771 8.10477 1.48771ZM12.592 21.5123H2.8015C2.09671 21.5123 1.52344 20.9525 1.52344 20.2644V17.4757C1.52344 13.9318 4.47589 11.0487 8.10477 11.0487C11.7336 11.0487 14.6861 13.932 14.6861 17.4757V20.2644C14.6861 20.9525 14.1126 21.5123 13.408 21.5123H12.592ZM23.1985 21.5123C23.9033 21.5123 24.4766 20.9525 24.4766 20.2644V17.4757C24.4766 13.9318 21.5243 11.0487 17.8954 11.0487C16.5436 11.0487 15.2362 11.4528 14.1392 12.1982C15.4256 13.5995 16.2095 15.4499 16.2095 17.4757V20.2644C16.2095 20.7138 16.0973 21.1378 15.8997 21.5123H23.1985Z" fill="#933C85"/>
</svg>
