<svg width="46" height="47" viewBox="0 0 46 47" fill="none" xmlns="http://www.w3.org/2000/svg">
<path d="M0 23.5C0 10.814 10.2706 0.526827 22.9503 0.500053C35.6398 0.47319 45.8966 10.6206 45.9992 23.3097C46.0517 29.7969 43.4182 35.6694 39.1441 39.8818C38.7454 40.2748 38.1134 40.2938 37.6827 39.9362C33.6994 36.6291 28.5819 34.6406 23 34.6406C17.4838 34.6406 12.4212 36.5825 8.45843 39.82C7.93437 40.2481 7.17295 40.2021 6.6957 39.7224C2.55749 35.5636 0 29.8304 0 23.5H0Z" fill="#9BCF1B"/>
<path d="M45.9765 24.5488C45.7076 30.5428 43.1445 35.9397 39.1442 39.8823C38.7455 40.2752 38.1135 40.2943 37.6828 39.9367C33.6994 36.6296 28.5819 34.6411 23 34.6411C17.4838 34.6411 12.4212 36.5829 8.45842 39.8204C7.93436 40.2485 7.17293 40.2025 6.69568 39.7229C2.78721 35.7948 0.288746 30.4624 0.0234375 24.5488H45.9765Z" fill="#84B017"/>
<path d="M27.9414 4.99219H25.9199V3.41992C25.9199 1.80992 24.61 0.5 23 0.5C21.39 0.5 20.0801 1.80992 20.0801 3.41992V4.99219H18.0586C16.9439 4.99219 16.0371 5.89898 16.0371 7.01367V9.70898C16.0371 10.8237 16.9439 11.7305 18.0586 11.7305H27.9414C29.0561 11.7305 29.9629 10.8237 29.9629 9.70898V7.01367C29.9629 5.89898 29.0561 4.99219 27.9414 4.99219ZM28.6152 9.70898C28.6152 10.0806 28.313 10.3828 27.9414 10.3828H18.0586C17.687 10.3828 17.3848 10.0806 17.3848 9.70898V7.01367C17.3848 6.64208 17.687 6.33984 18.0586 6.33984H20.7539C21.126 6.33984 21.4277 6.03815 21.4277 5.66602V3.41992C21.4277 2.55302 22.1331 1.84766 23 1.84766C23.8669 1.84766 24.5723 2.55302 24.5723 3.41992V5.66602C24.5723 6.03815 24.874 6.33984 25.2461 6.33984H27.9414C28.313 6.33984 28.6152 6.64208 28.6152 7.01367V9.70898Z" fill="#7E8B96"/>
<path d="M9.1803 41.8869C8.27162 41.2028 7.41532 40.4531 6.61841 39.6445V11.2812C6.61841 9.79263 7.8251 8.58594 9.31372 8.58594H13.3641C11.8755 8.58594 10.6688 9.79272 10.6688 11.2812V41.1388C10.6689 41.9051 9.79259 42.3478 9.1803 41.8869Z" fill="#FF9F22"/>
<path d="M39.1868 11.2812V39.8397C37.9813 41.034 36.6442 42.0959 35.1994 43.0017V18.2535C35.1994 16.3628 33.6666 14.8301 31.776 14.8301H9.36694V11.2812C9.36694 9.79272 10.5736 8.58594 12.0623 8.58594H36.4914C37.98 8.58594 39.1868 9.79272 39.1868 11.2812Z" fill="#FFC14F"/>
<path d="M17.2201 14.7295V45.7675C14.2493 44.9985 11.5115 43.6508 9.13416 41.8518V14.7295C9.13416 13.9852 9.73755 13.3818 10.4818 13.3818H15.8724C16.6167 13.3818 17.2201 13.9852 17.2201 14.7295Z" fill="#DEF4F8"/>
<path d="M39.3815 46.5004H17.2844C15.2044 46.5004 10.931 45.3803 10.931 37.3363V12.7861C10.931 12.0419 11.5344 11.4385 12.2787 11.4385H35.2685C36.0128 11.4385 36.6162 12.0419 36.6162 12.7861V37.3363C36.6162 45.3834 39.3815 46.5004 39.3815 46.5004Z" fill="#FFF5F5"/>
<path d="M31.625 9.78809V10.6865C31.625 11.6789 30.8205 12.4834 29.8281 12.4834H28.9297C28.9297 13.4758 28.1252 14.2803 27.1328 14.2803H18.8672C17.8748 14.2803 17.0703 13.4758 17.0703 12.4834H16.1719C15.1795 12.4834 14.375 11.6789 14.375 10.6865V9.78809C14.375 8.79567 15.1795 7.99121 16.1719 7.99121H29.8281C30.8205 7.99121 31.625 8.79567 31.625 9.78809Z" fill="#B9C3CD"/>
<path d="M29.8282 12.4834H18.8629C17.8705 12.4834 17.066 11.6789 17.066 10.6865V9.78809C17.066 8.79567 17.8705 7.99121 18.8629 7.99121H29.8282C30.8206 7.99121 31.625 8.79567 31.625 9.78809V10.6865C31.625 11.6789 30.8206 12.4834 29.8282 12.4834Z" fill="#C8D2DC"/>
<path d="M30.0527 10.9111H15.9473C15.5751 10.9111 15.2734 10.6094 15.2734 10.2373C15.2734 9.86517 15.5751 9.56348 15.9473 9.56348H30.0527C30.4249 9.56348 30.7266 9.86517 30.7266 10.2373C30.7266 10.6094 30.4249 10.9111 30.0527 10.9111Z" fill="#A2ABB8"/>
<path d="M18.0586 10.2373C18.0586 10.6094 17.7569 10.9111 17.3848 10.9111H16.9355C16.5634 10.9111 16.2617 10.6094 16.2617 10.2373C16.2617 9.86517 16.5634 9.56348 16.9355 9.56348H17.3848C17.7569 9.56348 18.0586 9.86517 18.0586 10.2373ZM29.0645 9.56348H28.6152C28.2431 9.56348 27.9414 9.86517 27.9414 10.2373C27.9414 10.6094 28.2431 10.9111 28.6152 10.9111H29.0645C29.4366 10.9111 29.7383 10.6094 29.7383 10.2373C29.7383 9.86517 29.4366 9.56348 29.0645 9.56348Z" fill="#7E8B96"/>
<path d="M32.7181 34.191H22.2064C21.8343 34.191 21.5326 33.8893 21.5326 33.5172C21.5326 33.1451 21.8343 32.8434 22.2064 32.8434H32.7181C33.0903 32.8434 33.392 33.1451 33.392 33.5172C33.392 33.8893 33.0903 34.191 32.7181 34.191ZM29.7982 35.7633C29.7982 35.3912 29.4965 35.0895 29.1244 35.0895H22.2064C21.8343 35.0895 21.5326 35.3912 21.5326 35.7633C21.5326 36.1354 21.8343 36.4371 22.2064 36.4371H29.1244C29.4965 36.4371 29.7982 36.1354 29.7982 35.7633ZM18.1185 35.9879V33.2926C18.1185 33.0445 17.9174 32.8434 17.6693 32.8434H14.974C14.7259 32.8434 14.5248 33.0445 14.5248 33.2926V35.9879C14.5248 36.236 14.7259 36.4371 14.974 36.4371H17.6693C17.9174 36.4371 18.1185 36.236 18.1185 35.9879ZM33.392 38.9078C33.392 38.5357 33.0903 38.234 32.7181 38.234H22.2064C21.8343 38.234 21.5326 38.5357 21.5326 38.9078C21.5326 39.28 21.8343 39.5817 22.2064 39.5817H32.7181C33.0903 39.5817 33.392 39.28 33.392 38.9078ZM29.7982 41.1539C29.7982 40.7818 29.4965 40.4801 29.1244 40.4801H22.2064C21.8343 40.4801 21.5326 40.7818 21.5326 41.1539C21.5326 41.5261 21.8343 41.8277 22.2064 41.8277H29.1244C29.4965 41.8277 29.7982 41.5261 29.7982 41.1539ZM18.1185 41.3785V38.6832C18.1185 38.4352 17.9174 38.234 17.6693 38.234H14.974C14.7259 38.234 14.5248 38.4352 14.5248 38.6832V41.3785C14.5248 41.6266 14.7259 41.8277 14.974 41.8277H17.6693C17.9174 41.8277 18.1185 41.6266 18.1185 41.3785ZM30.1533 29.5361C30.1533 29.164 29.8516 28.8623 29.4794 28.8623H16.097C15.7249 28.8623 15.4232 29.164 15.4232 29.5361C15.4232 29.9083 15.7249 30.21 16.097 30.21H29.4794C29.8516 30.21 30.1533 29.9084 30.1533 29.5361Z" fill="#C8D2DC"/>
</svg>
