<svg width="120" height="65" viewBox="0 0 120 65" fill="none" xmlns="http://www.w3.org/2000/svg">
<path d="M5.5198 36.7157C3.30543 36.7157 2.1974 38.2804 2.1974 40.9127C2.1974 43.6441 3.11199 45.3296 5.55543 45.2776C5.9884 45.2869 6.42047 45.2343 6.83824 45.1214C7.15554 45.0173 7.20814 44.878 7.20814 44.5473V43.1572L9 43.2781V46.2865C8.0345 46.7902 6.6448 47 5.5198 47C1.95645 47 0 45.0173 0 41.052C0 36.5193 2.81335 35 5.5198 35C6.65964 35.0024 7.78609 35.2433 8.82523 35.7068V38.6631L7.03167 38.784V37.4275C7.03167 37.0918 6.97907 36.9591 6.66346 36.8534C6.2905 36.7554 5.90562 36.7091 5.5198 36.7157Z" fill="#292E60"/>
<path fill-rule="evenodd" clip-rule="evenodd" d="M18.4237 45.3885C18.0807 45.3721 17.9727 45.2707 17.9727 44.8977V38.5906C16.9435 38.232 15.8592 38.0325 14.762 38C11.5148 38 10 39.8978 10 42.882C10 45.305 11.0638 47 13.6077 47C14.5949 47.0004 15.519 46.5439 16.0784 45.7795L16.1323 45.7959V46.7775H19V45.4212L18.4237 45.3885ZM14.4904 39.4741C14.9653 39.4652 15.4378 39.5402 15.8833 39.695L15.8781 44.0862C15.8781 44.8142 15.1938 45.5586 14.0743 45.5586C12.5595 45.5586 12.1991 44.2203 12.1991 42.8133C12.1991 40.9825 12.7754 39.4741 14.4904 39.4741Z" fill="#292E60"/>
<path d="M21.1523 40.2355C21.1523 39.8529 21.0493 39.7321 20.7222 39.7136L20 39.6616V38.262H22.9056V39.5659C23.3499 38.609 24.3021 37.9985 25.348 38.0002C25.9209 37.9935 26.4871 38.1247 27 38.3829V40.9739L25.4011 41.0947V40.2959C25.4011 40.0861 25.3662 39.9301 25.2351 39.8613C25.0891 39.7953 24.9298 39.7654 24.7702 39.774C23.842 39.774 23.2061 40.5208 23.2061 41.5293V45.5568L24.7004 45.6273V47H20.0863V45.6793L20.6525 45.6273C20.9846 45.5921 21.1506 45.488 21.1506 45.0534L21.1523 40.2355Z" fill="#292E60"/>
<path d="M31.7747 36.0068V37.8796H34.4124L34.2209 39.3608H31.7747V43.9985C31.7747 45.0744 32.2513 45.3928 33.0648 45.3928C33.5409 45.3788 34.0039 45.2506 34.4047 45.0217L35 46.3837C34.4047 46.7531 33.4132 47 32.481 47C29.3877 47 29.4069 45.3077 29.4069 44.0734V39.3523H28L28.1914 38.0652C29.5792 37.9579 30.0539 37.0062 30.4712 36L31.7747 36.0068Z" fill="#292E60"/>
<path fill-rule="evenodd" clip-rule="evenodd" d="M36.5702 35.4828C37.0211 34.5006 37.7052 34.0708 38.4085 34.0708C38.8438 34.0708 39.2987 34.2083 39.7315 34.3392C40.1245 34.458 40.4992 34.5714 40.8248 34.5714C41.0963 34.5714 41.4027 34.3573 41.6186 34L42.5934 34.5179C42.1774 35.5916 41.6012 36.0714 40.736 36.0714C40.346 36.0714 39.9062 35.9376 39.4902 35.8111C39.1171 35.6975 38.7631 35.5898 38.4816 35.5898C37.9942 35.5898 37.8132 35.6779 37.4371 36.1077L36.5702 35.4828ZM42.9712 44.7818C42.9712 45.1754 43.0791 45.2824 43.4221 45.2997L44 45.3342V46.7652H41.1329V45.7295L41.0772 45.7123C40.518 46.5188 39.594 47.0005 38.607 47C36.0654 47 35 45.2117 35 42.6552C35 39.5066 36.5162 37.5042 39.7611 37.5042C40.8581 37.5385 41.9422 37.7489 42.9712 38.1273V44.7818ZM39.4878 39.0595C39.9626 39.0506 40.4349 39.1296 40.8805 39.2925L40.877 43.9256C40.877 44.6938 40.1911 45.4792 39.0735 45.4792C37.5573 45.4792 37.1969 44.0672 37.1969 42.5827C37.1969 40.651 37.7749 39.0595 39.4878 39.0595Z" fill="#292E60"/>
<path fill-rule="evenodd" clip-rule="evenodd" d="M53 42.2726C53 38.388 50.4137 38 49.129 38C47.3417 38 45 38.9797 45 42.491C45 45.5475 46.5276 47 48.8526 47C51.1424 47 53 45.5149 53 42.2726ZM49.0251 39.4867C50.4137 39.4867 50.8827 40.6522 50.8827 42.5432C50.8827 44.294 50.3451 45.5149 48.9916 45.5182C47.325 45.5182 47.0988 43.8277 47.0988 42.2579C47.0988 40.6278 47.6365 39.4867 49.0251 39.4867Z" fill="#292E60"/>
<path fill-rule="evenodd" clip-rule="evenodd" d="M61.9658 36.4615L63.1255 36.5712L60.1597 44.9794C60.0318 45.3225 59.9199 45.448 59.6074 45.4845L59 45.5385V47H63.2498V45.4671L62.147 45.4131L62.6993 43.8245H67.0041L67.3895 44.9428C67.5192 45.34 67.3345 45.448 66.9491 45.4845L66.2494 45.5385V47H71V45.4671L69.9504 45.4131H69.9327L66.1801 35H61.9658V36.4615ZM66.5655 42.1645H63.1433L64.8464 37.0224H64.9014L66.5655 42.1645Z" fill="#292E60"/>
<path d="M75.0426 45.4863L76 45.5409V47H72V45.6148L72.555 45.5602C72.8568 45.5233 73.0418 45.4142 73.0418 44.9759V35.9871C73.0418 35.6598 72.8795 35.5682 72.6215 35.5506L72.0341 35.5137V34H75.0426V45.4863Z" fill="#292E60"/>
<path fill-rule="evenodd" clip-rule="evenodd" d="M79.773 34.3879C79.5319 34.1311 79.204 33.9918 78.8654 34.0024C78.5217 33.9801 78.1852 34.1147 77.938 34.3734C77.6909 34.632 77.5559 34.9909 77.5661 35.3622C77.5661 36.1234 78.0835 36.6852 78.8443 36.6852C79.605 36.6852 80.1419 36.1234 80.1419 35.3622C80.1474 34.9967 80.0141 34.6447 79.773 34.3879ZM81 45.5492L80.0414 45.495V37.891H77.0341V39.3873L77.6212 39.424C77.9408 39.424 78.0414 39.55 78.0414 39.9491V44.9874C78.0414 45.4232 77.8581 45.5317 77.5547 45.5685L77 45.6227V47H81V45.5492Z" fill="#292E60"/>
<path fill-rule="evenodd" clip-rule="evenodd" d="M90.4221 45.3885C90.0791 45.3721 89.9712 45.2707 89.9712 44.8977V38.5906C88.9422 38.232 87.8581 38.0325 86.7611 38C83.5162 38 82 39.8978 82 42.882C82 45.305 83.0654 47 85.607 47C86.594 47.0004 87.518 46.5439 88.0772 45.7795L88.1329 45.7959V46.7775H91V45.4212L90.4221 45.3885ZM86.4896 39.4741C86.9644 39.4656 87.4367 39.5405 87.8822 39.695L87.8787 44.0862C87.8787 44.8142 87.1928 45.5586 86.0752 45.5586C84.559 45.5586 84.1986 44.2203 84.1986 42.8133C84.1986 40.9825 84.7766 39.4741 86.4896 39.4741Z" fill="#292E60"/>
<path d="M93 38.2624H95.7797V39.3922C96.4029 38.4991 97.3969 37.9804 98.4467 38.0006C100.092 38.0006 101.063 38.9742 101.063 41.0222V45.5547L102 45.6067V46.9983H98.0909V45.6772L98.6341 45.6252C98.9518 45.5899 99.1107 45.4858 99.1107 45.051V41.4704C99.1107 40.3222 98.8803 39.592 97.7621 39.592C97.3124 39.5714 96.8749 39.7488 96.5536 40.0819C96.2324 40.415 96.0563 40.874 96.0672 41.3495V45.5563L97.0044 45.6084V47H93.089V45.6789L93.6306 45.6268C93.9483 45.5916 94.1071 45.4875 94.1071 45.0527V40.2366C94.1071 39.8538 93.9912 39.7145 93.6957 39.696L93.0048 39.644L93 38.2624Z" fill="#292E60"/>
<path d="M109.262 44.7889L110 46.1093C109.23 46.7149 108.284 47.057 107.303 47.0848L107.098 47.9398C108.008 48.0075 108.695 48.4697 108.695 49.3412C108.695 50.5907 107.544 51 106.599 51C106.068 50.9973 105.544 50.893 105.053 50.693L105.328 49.8033C105.699 49.9317 106.087 50.0068 106.479 50.0262C107.08 50.0262 107.308 49.7357 107.308 49.3923C107.308 48.8625 106.706 48.7437 105.796 48.7437L106.333 47.0452C104.219 46.7894 103 45.2494 103 42.6679C103 39.2017 105.148 38 107.088 38C108.027 37.9967 108.951 38.2386 109.768 38.7015V40.9249L108.187 41.0437V40.2184C108.187 39.8883 108.136 39.7397 107.828 39.6374C107.614 39.5665 107.389 39.5319 107.164 39.5351C105.789 39.5351 105.085 40.5601 105.085 42.4582C105.085 44.3218 105.773 45.5184 107.302 45.5184C107.957 45.5283 108.557 45.3022 109.262 44.7889Z" fill="#292E60"/>
<path fill-rule="evenodd" clip-rule="evenodd" d="M119.424 45.3885C119.081 45.3721 118.973 45.2707 118.973 44.8977V38.5906C117.944 38.232 116.859 38.0325 115.762 38C112.515 38 111 39.8978 111 42.882C111 45.305 112.064 47 114.608 47C115.595 47.0004 116.519 46.5439 117.078 45.7795L117.132 45.7959V46.7775H120V45.4212L119.424 45.3885ZM115.49 39.4741C115.965 39.4653 116.438 39.5402 116.883 39.695L116.88 44.0862C116.88 44.8142 116.194 45.5586 115.076 45.5586C113.561 45.5586 113.201 44.2203 113.201 42.8133C113.201 40.9825 113.777 39.4741 115.49 39.4741Z" fill="#292E60"/>
<path fill-rule="evenodd" clip-rule="evenodd" d="M45.8307 31.885C45.5794 31.787 45.3836 31.5824 45.2953 31.3256H45.2884C45.0151 30.6162 45.3004 30.2531 45.6862 29.7621C45.7194 29.7198 45.7533 29.6766 45.7878 29.6321C52.7596 20.4895 51.5433 20.0827 46.7574 18.4817C45.7327 18.139 44.5445 17.7415 43.238 17.1919C42.0815 16.7053 41.4655 16.2533 41.1377 15.0983C40.9865 14.6322 40.9592 14.1342 41.0588 13.6541C41.4466 12.0402 43.1041 11.7181 44.4906 12.2134C46.0023 12.764 47.5688 13.3026 48.9416 13.7718L48.9549 13.7764C54.0249 15.5188 56.4901 16.3661 56.9376 18.5651C57.3511 20.5773 55.6935 22.4163 52.4763 25.9835L52.4341 26.0304C51.1499 27.4572 49.5851 29.1957 47.7181 31.4018C47.2553 31.9525 46.4975 32.1464 45.8307 31.885ZM45.1929 22.2768C45.321 23.3192 46.2611 24.0603 47.2943 23.9332H47.3012C47.7989 23.8702 48.2513 23.6097 48.5585 23.2094C48.8656 22.8091 49.0022 22.3019 48.9381 21.7998C48.8056 20.7579 47.8623 20.021 46.8297 20.1525C45.797 20.2841 45.0648 21.2344 45.1929 22.2768Z" fill="#E5A14B"/>
<path fill-rule="evenodd" clip-rule="evenodd" d="M78.174 10.2542C78.3708 10.3888 78.4991 10.6037 78.525 10.8422H78.5303C78.6236 11.5059 78.3146 11.7637 77.9045 12.106C77.8669 12.1374 77.8285 12.1694 77.7895 12.2025C69.9917 18.7314 70.9715 19.327 74.7979 21.6531C75.6159 22.1503 76.564 22.7267 77.5842 23.457C78.4847 24.1035 78.9305 24.6171 78.9885 25.6799C79.0304 26.1122 78.9577 26.5481 78.7778 26.9428C78.1283 28.2606 76.6328 28.2198 75.5304 27.5113C74.3923 26.7844 73.2069 26.051 72.1551 25.4003C72.0972 25.3645 72.0398 25.329 71.9828 25.2937L71.9566 25.2775C67.923 22.7786 65.9603 21.5628 66.0006 19.5762C66.0304 17.7642 67.8227 16.4942 71.2965 14.0446L71.3639 13.9971C72.7451 13.0229 74.4261 11.8373 76.4537 10.3002C76.9592 9.91755 77.6491 9.89908 78.174 10.2542ZM76.8721 18.6794C76.9604 17.7506 76.2859 16.9254 75.3654 16.8361C74.923 16.7927 74.4817 16.9287 74.1388 17.2142C73.796 17.4996 73.5798 17.911 73.5381 18.3576C73.4503 19.2864 74.1251 20.1113 75.0456 20.2002C75.9661 20.289 76.7838 19.6082 76.8721 18.6794Z" fill="#7AB742"/>
<path fill-rule="evenodd" clip-rule="evenodd" d="M49.4136 0.44341C49.6091 0.182527 49.9074 0.0228953 50.2289 0.00708511C51.12 -0.0622558 51.4376 0.385716 51.8627 0.985226C51.9014 1.0398 51.941 1.09563 51.9819 1.15244C60.0205 12.4415 60.8973 11.1499 64.3351 6.08546C65.0684 5.00533 65.9181 3.75358 66.9786 2.41567C67.9198 1.22633 68.642 0.659813 70.0659 0.670369C70.6459 0.651808 71.2204 0.790203 71.731 1.07151C73.4341 2.07963 73.2445 4.1293 72.2102 5.58254C71.1177 7.11936 70.0106 8.72248 69.0355 10.1345L68.9471 10.2625C65.2497 15.6162 63.4535 18.2148 60.8024 17.9861C58.3754 17.7785 56.8464 15.2116 53.8781 10.2273C52.687 8.22512 51.2235 5.77431 49.3274 2.80977C48.8611 2.08226 48.8956 1.13357 49.4136 0.44341ZM59.6564 2.9925C58.7662 3.21023 58.0924 3.95418 57.9496 4.87703C57.7541 6.13362 58.5925 7.31444 59.8233 7.51609C60.727 7.66487 61.6295 7.24296 62.1093 6.44733C62.5892 5.65171 62.5519 4.6393 62.0147 3.88276C61.4776 3.12622 60.5466 2.77478 59.6564 2.9925Z" fill="#A8348A"/>
<path fill-rule="evenodd" clip-rule="evenodd" d="M51.9709 57.8348C52.6284 57.864 53.2838 57.9277 53.9342 58.0258C54.0417 58.0428 54.0117 57.9303 53.8866 57.9167C53.1904 57.7567 52.4839 57.6428 51.7717 57.5757C50.9628 56.6925 49.2516 56.2356 47.8417 55.9458C47.5575 55.8875 47.286 55.8347 47.0361 55.7862C46.3062 55.6444 45.7603 55.5384 45.6211 55.4343C44.5549 54.5989 48.818 51.7687 51.9568 51.5982C52.4467 51.5709 52.6476 51.755 52.6617 52.0057C52.7128 52.8854 50.8624 54.6517 49.6093 55.5042C49.4771 55.5792 49.5582 55.6389 49.6534 55.6389C50.4112 55.598 53.4654 53.8061 53.4072 52.824C53.3402 51.6595 52.3745 50.9332 51.0774 51.0049C49.0242 51.1157 46.5604 52.1318 45.2175 53.2571C44.3681 53.9663 43.8517 54.7983 44.3681 55.3303C44.5517 55.5131 44.7841 55.6429 45.0395 55.7054C45.5578 55.8642 46.3004 56.0163 47.0987 56.1799C47.2859 56.2182 47.4761 56.2572 47.6672 56.297C49.033 56.5766 50.5099 56.9431 51.1003 57.5416C50.5208 57.5126 49.9403 57.5126 49.3608 57.5416C44.3927 57.811 37.8561 60.6053 38.0024 63.1508C38.0782 64.4841 40.6354 65.0569 41.7792 64.9956C43.4552 64.9069 46.2908 64.0067 48.5942 62.6905C50.6685 61.5124 52.3198 59.9796 52.2423 58.6447C52.2235 58.357 52.1301 58.0785 51.9709 57.8348ZM50.1257 57.8655C50.5152 57.8451 50.917 57.8246 51.3188 57.8246C51.3497 57.9047 51.3699 57.9884 51.3787 58.0735C51.4369 59.0777 49.6692 60.6497 47.3077 61.9591C45.1171 63.1764 42.4154 64.1482 40.2794 64.2641C39.904 64.2846 38.8765 64.1687 38.8466 63.6316C38.7373 61.7136 44.7681 58.1571 50.1257 57.8655Z" fill="#7AB742"/>
<path fill-rule="evenodd" clip-rule="evenodd" d="M59.9524 57.7251C59.9577 57.6116 59.7496 57.2746 59.5468 57.0233C59.903 56.8148 60.2645 56.4815 60.2557 56.3065C60.2151 55.5618 59.4251 54.9493 58.4923 55.0033C57.6424 55.0536 56.3851 55.9286 55.2936 57.0065C54.0116 58.2706 52.9589 59.8717 53.0012 60.6685C53.033 61.2679 53.8424 62.0201 54.1862 61.9996C54.6464 61.9717 56.2246 60.4786 57.4784 59.1158L58.2296 58.3078C57.3955 59.5701 57.0058 60.244 56.9458 60.46C56.9345 60.5011 56.9292 60.5438 56.93 60.5866C56.9194 61.0613 57.6212 61.8078 58.0709 61.7818C58.091 61.7793 58.1106 61.7737 58.1291 61.765C58.8608 61.4932 61.4724 58.2538 61.9837 57.3975C62.0366 57.3044 61.9502 57.2132 61.8709 57.3044C60.3985 58.9985 58.4588 60.8453 58.1996 60.8602C58.1361 60.864 58.1361 60.8398 58.1361 60.8025C58.1361 60.581 58.6933 59.464 59.6544 58.1608L59.9312 57.7884C59.9428 57.7694 59.9501 57.7477 59.9524 57.7251ZM58.9578 56.6509C58.9564 56.6509 58.9564 56.6495 58.9578 56.6475V56.6509ZM58.9589 56.646C58.9721 56.6311 59.0457 56.5931 59.21 56.6993C59.2796 56.744 59.3425 56.7992 59.3969 56.8632C59.6808 56.4089 59.7496 56.0421 59.6949 55.8076C59.6468 55.6286 59.4761 55.519 59.3034 55.5562C59.2037 55.5623 59.1048 55.5804 59.009 55.6102C58.159 55.856 57.1592 56.69 56.2775 57.6693C55.0132 59.0693 53.9852 60.6201 54.0046 61.0427C54.0046 61.0799 54.0204 61.1302 54.1033 61.1246C54.553 61.0985 58.9684 57.7102 59.0107 56.7328C59.0073 56.6969 58.9881 56.6648 58.9589 56.646Z" fill="#7AB742"/>
<path fill-rule="evenodd" clip-rule="evenodd" d="M63.8823 53.6602C63.7869 53.7086 63.758 53.8393 63.8319 53.8393C64.2895 53.8017 66.1899 53.1785 67.1501 52.6073C67.4257 52.4426 67.4365 51.9179 67.4257 51.7263C67.4095 51.4237 67.296 51.1283 67.0348 51.0101C67.0114 50.9958 66.9735 50.9975 66.9861 51.0101C67.0708 51.1372 67.0384 51.2697 66.8907 51.4488C66.2241 52.2904 64.8173 53.3021 63.8823 53.6602ZM65.0803 59.8433C65.0803 59.5908 66.3232 57.4886 67.323 56.1223C67.5824 55.7588 67.8094 55.5189 67.8094 55.5189C67.8216 55.4963 67.8284 55.4711 67.8292 55.4455C67.8328 55.2772 67.6761 54.8528 67.1933 54.4588C67.0511 54.3181 66.8524 54.2489 66.6529 54.2708C66.7259 54.3006 66.7736 54.3714 66.7736 54.4499C66.815 54.7615 66.5826 55.1339 66.4025 55.3846C65.5576 56.5628 61.645 60.0653 61.2343 60.0868C61.1622 60.0922 61.1316 60.0205 61.1316 59.9722C61.1172 59.7322 61.7333 58.6274 62.6088 57.4134C63.0357 56.8243 63.8373 55.8161 63.8373 55.8161C63.8499 55.7937 63.8567 55.7684 63.8571 55.7427C63.816 55.3046 63.586 54.9056 63.2266 54.6486C62.9222 54.3997 62.7096 54.4964 62.6862 54.509C62.8087 54.5269 62.9204 54.5931 62.8952 54.7632C62.8041 55.0468 62.6679 55.314 62.4917 55.5547C62.41 55.6745 62.3276 55.7951 62.2451 55.9161C61.1294 57.5502 59.9769 59.2382 60.0004 59.6517C60.0238 59.9865 60.2561 60.3339 60.5642 60.6419C60.7419 60.8522 60.9982 60.9815 61.2739 61C61.2945 60.9981 61.3146 60.9926 61.3334 60.9839C62.0107 60.5846 63.9814 58.6113 65.2964 57.0338C65.2487 57.1076 65.1985 57.1849 65.1466 57.2649C64.5933 58.1174 63.8482 59.2655 63.8679 59.6158C63.895 60.0707 64.5182 60.8299 64.9758 60.8048C65.3379 60.7851 66.6979 59.3741 67.4473 58.5021C68.1967 57.63 68.7389 56.9335 68.9839 56.5754C69.0397 56.4894 68.9388 56.4106 68.8596 56.4984C67.3428 58.1296 65.3973 59.8862 65.1433 59.9006C65.0947 59.9023 65.0803 59.8791 65.0803 59.8433Z" fill="#7AB742"/>
<path fill-rule="evenodd" clip-rule="evenodd" d="M72.0646 59.9926C72.0193 59.9959 72.0036 59.9747 72.0036 59.9422C71.9758 59.485 74.1832 56.3092 74.2546 56.2294L76.9808 52.162C76.9926 52.1415 76.9992 52.1187 77 52.0953C77.0017 51.9424 76.4725 51.3144 76.2288 51.1419C75.9241 50.9272 75.8249 51.0199 75.8353 51.0199C76.0512 51.1061 75.9676 51.4722 75.7378 51.9326C75.3566 52.6957 74.3556 54.212 73.4416 55.5494C73.1823 55.1543 72.7189 54.9167 72.223 54.9246C72.2205 54.925 72.2172 54.9253 72.2121 54.9258C72.1962 54.9272 72.1631 54.9302 72.0837 54.9425C70.4751 55.2354 67.916 57.6205 67.2092 59.0669C67.0667 59.317 66.9948 59.597 67.0003 59.8803C67.0786 60.3896 67.8411 61.016 68.1667 60.9997C68.6211 60.9753 69.9424 59.869 71.161 58.678L71.7355 58.1135C71.3981 58.6245 71.1097 59.1624 70.8738 59.7209C70.8499 59.7774 70.8375 59.8375 70.8372 59.8982C70.8372 60.1049 71.0897 60.3977 71.3821 60.6125C71.5263 60.7337 71.7107 60.8049 71.9044 60.8142C72.2543 60.7963 73.5687 59.5143 74.2929 58.7219C75.0171 57.9296 75.5394 57.2967 75.7779 56.9713C75.8301 56.8916 75.7326 56.8217 75.656 56.9014C74.1902 58.3852 72.31 59.9812 72.0646 59.9926ZM68.0068 60.2193C67.9898 60.2052 67.9806 60.1846 67.9822 60.1634C67.9647 60.0447 68.0762 59.7762 68.5288 59.114C69.2269 58.1053 71.4309 55.4648 72.841 55.3916C72.9805 55.3764 73.1088 55.4644 73.1352 55.5933C73.1451 55.77 72.742 56.3584 72.4749 56.7482C72.4125 56.8393 72.3575 56.9195 72.317 56.9811C71.1558 58.4893 68.4661 60.2155 68.0692 60.235C68.0469 60.2391 68.0239 60.2333 68.0068 60.2193Z" fill="#7AB742"/>
<path fill-rule="evenodd" clip-rule="evenodd" d="M80.3222 55.3469C80.2899 54.7036 79.6251 53.9584 78.9297 54.0018C78.3567 54.0377 77.6239 54.464 76.8502 55.079C75.9848 55.779 75.002 56.892 74.4698 57.8881C74.157 58.4786 73.97 59.0465 74.004 59.5011C74.0448 60.1199 75.0292 61.033 75.575 60.9991C76.7142 60.9331 79.5214 58.4126 80.9887 56.4713C81.038 56.4185 80.9122 56.3242 80.868 56.3657C79.8707 57.3688 78.7889 58.2633 77.6375 59.0371C76.9642 59.4974 75.9355 60.1577 75.3336 60.1954C75.15 60.2067 75.0241 60.1369 75.0241 59.9483C75.0874 59.386 75.2717 58.849 75.5614 58.3824C77.6375 58.239 80.3545 55.9902 80.3222 55.3469ZM75.7842 58.0366C75.7813 58.0374 75.7785 58.0382 75.7757 58.0391H75.7825C75.783 58.0382 75.7836 58.0374 75.7842 58.0366ZM75.7842 58.0366C76.684 57.7732 77.8184 56.9049 78.5743 56.2166C79.3701 55.4828 79.6608 54.9206 79.654 54.7678C79.654 54.6546 79.5792 54.6338 79.4993 54.6395C78.5901 54.696 76.8606 56.4864 75.7842 58.0366Z" fill="#7AB742"/>
</svg>
