<?xml version="1.0" encoding="UTF-8"?>
<svg width="13px" height="14px" viewBox="0 0 13 14" version="1.1" xmlns="http://www.w3.org/2000/svg" xmlns:xlink="http://www.w3.org/1999/xlink">
    <!-- Generator: sketchtool 63.1 (101010) - https://sketch.com -->
    <title>ECB0F152-E333-43EC-89D4-1ABE4F0E238C</title>
    <desc>Created with sketchtool.</desc>
    <g id="mobile" stroke="none" stroke-width="1" fill="none" fill-rule="evenodd">
        <g id="área_logada_dados-pessoais" transform="translate(-334.000000, -94.000000)">
            <rect fill="#FFFFFF" x="0" y="0" width="360" height="640"></rect>
            <g id="editar" transform="translate(282.000000, 87.000000)">
                <rect id="Rectangle" fill="#FFFFFF" x="0" y="0" width="70" height="29"></rect>
                <g id="editar-copy-2" transform="translate(14.000000, 6.000000)" fill="#999999" fill-rule="nonzero">
                    <g id="noun_edit_1100148" transform="translate(36.000000, 1.000000)">
                        <g id="Group">
                            <g id="Path">
                                <g transform="translate(8.268775, 7.491172) rotate(45.000000) translate(-8.268775, -7.491172) translate(6.268775, -1.008828)">
                                    <path d="M-1.09746059e-12,1.16405984 C-1.09746059e-12,0.521167345 0.490331445,0 1.1065365,0 L2.21654043,0 C2.82766365,0 3.32307692,0.520117077 3.32307692,1.16405984 C3.32307692,1.16405984 3.32307692,12.8615385 3.32307692,12.8615385 C3.32307692,12.8615385 -1.09746059e-12,12.8615385 -1.09746059e-12,12.8615385 C-1.09746059e-12,12.8615385 -1.09746059e-12,1.16405984 -1.09746059e-12,1.16405984 Z"></path>
                                    <polygon points="1.66153846 16.9538462 0 13.4461538 3.32307692 13.4461538"></polygon>
                                </g>
                            </g>
                        </g>
                    </g>
                </g>
            </g>
        </g>
    </g>
</svg>